arm26_states
nRows=10
nColumns=17

# SIMM Motion File Header:
name arm26_states
datacolumns 17
datarows 10
otherdata 1
range 0.74812499999999960000 0.75012500000000049000
endheader
time	r_shoulder_elev	r_elbow_flex	r_shoulder_elev_u	r_elbow_flex_u	TRIlong.activation	TRIlong.fiber_length	TRIlat.activation	TRIlat.fiber_length	TRImed.activation	TRImed.fiber_length	BIClong.activation	BIClong.fiber_length	BICshort.activation	BICshort.fiber_length	BRA.activation	BRA.fiber_length
      0.74812499999999960000	    -24.99615271994722200000	     80.43176786567104800000	   -177.83463723666759000000	    168.76983066732060000000	      0.59780541117169228000	      0.14981007635709934000	      0.71843909311664178000	      0.09853265190508948800	      0.73824360942912437000	      0.09366616225250099000	      0.62927924108104460000	      0.11238125222611006000	      0.62926751824994143000	      0.10990281368962855000	      0.38522111173955870000	      0.07155979051345580400
      0.74837499999999957000	    -25.04056922937317300000	     80.47381798363301200000	   -177.49688186351736000000	    167.62899570473206000000	      0.59517103696806972000	      0.14979850811240980000	      0.71652440390532457000	      0.09854650131960128500	      0.73639092469798950000	      0.09368064106296455900	      0.63411288973825741000	      0.11236517062837342000	      0.63410145634488413000	      0.10988902661619183000	      0.38282098799387920000	      0.07154594968128133400
      0.74862499999999954000	    -25.08490091517037300000	     80.51558148162936800000	   -177.15617864224708000000	    166.47758092405400000000	      0.59239731352338809000	      0.14978734616971418000	      0.71451046542027041000	      0.09856060581169014100	      0.73444422236691098000	      0.09369532764068071200	      0.63944444738187445000	      0.11234850883137214000	      0.63943329627998802000	      0.10987466400941907000	      0.38043581824168299000	      0.07153217926492007300
      0.74887499999999951000	    -25.12914713859547100000	     80.55705624962217800000	   -176.81331483366145000000	    165.31987510528000000000	      0.58948510905439921000	      0.14977658345387884000	      0.71239789603500903000	      0.09857496212363307800	      0.73240408821342606000	      0.09371021732693748900	      0.64526162059527670000	      0.11233123251668117000	      0.64525074481507549000	      0.10985969860493325000	      0.37806550931197358000	      0.07151848229563968800
      0.74912499999999949000	    -25.17330745875574000000	     80.59824125638206700000	   -176.46908559101252000000	    164.16021805188637000000	      0.58643528636842246000	      0.14976621339312379000	      0.71018731027028825000	      0.09858956694201312400	      0.73027110436537956000	      0.09372530551614849400	      0.65155241948738152000	      0.11231330967584684000	      0.65154181223114893000	      0.10984410594182664000	      0.37570996861425721000	      0.07150486152711793600
      0.74937499999999946000	    -25.21738163429304400000	     80.63913656084426400000	   -176.12429166302741000000	    163.00298944880868000000	      0.58324870289704811000	      0.14975622989212498000	      0.70787931881807864000	      0.09860441692609396600	      0.72804584932366334000	      0.09374058768553890400	      0.65830515019857050000	      0.11229471056027453000	      0.65829480483642622000	      0.10982786424945701000	      0.37336910413492613000	      0.07149131942355067800
      0.74962499999999943000	    -25.26136962450575000000	     80.67974332072284900000	   -175.77973719471913000000	    161.85259807418103000000	      0.57992621072963080000	      0.14974662730828497000	      0.70547452856542858000	      0.09861950873672685500	      0.72572889798481399000	      0.09375605942438360000	      0.66550840759164653000	      0.11227540762786602000	      0.66549831765740253000	      0.10981095432878454000	      0.37104282443366415000	      0.07147785814877974400
      0.74987499999999940000	    -25.30527158993326600000	     80.72006379847438500000	   -175.43622762797921000000	    160.71347138757545000000	      0.57646865664657454000	      0.14973740043081737000	      0.70297354261817113000	      0.09863483906560829900	      0.72332082166346989000	      0.09377171646264181900	      0.67315106812325209000	      0.11225537548583800000	      0.67314122731037107000	      0.10979335942826796000	      0.36873103863987489000	      0.07146447955642504200
      0.75000000000000044000	    -25.32719041858064600000	     80.74011769155251300000	   -175.26511624503189000000	    160.14951852324978000000	      0.57468949456133789000	      0.14973292636707541000	      0.70168716370100293000	      0.09864259265622010700	      0.72208278919576219000	      0.09377961318001261400	      0.67713377375491135000	      0.11224507859876025000	      0.67712405518657093000	      0.10978430051336578000	      0.36758055271538004000	      0.07145782175838735800
      0.75012500000000049000	    -25.34908789243010900000	     80.76010136469766100000	   -175.09456743451182000000	    159.59004414185719000000	      0.57289639307229256000	      0.14972854408372466000	      0.70040481294303014000	      0.09865040400727230500	      0.72084863330773008000	      0.09378755408378039400	      0.68106668192565867000	      0.11223459362356426000	      0.68107174276101168000	      0.10977506784228862000	      0.36643365644764653000	      0.07145118518101999100
